<svg width="180" height="35" viewBox="0 0 180 35" fill="none" xmlns="http://www.w3.org/2000/svg">
<path d="M8.9439 18.4274H19.3108C19.3011 20.3503 18.8543 22.2404 18.0106 23.9275C17.2169 25.5004 16.0408 26.8024 14.6123 27.6895C13.1203 28.6057 11.432 29.0706 9.72124 29.0363C7.96544 29.067 6.23405 28.5839 4.70633 27.6368C3.25004 26.7239 2.05807 25.381 1.26675 23.7619C0.412837 22.0483 -0.0230911 20.123 0.000984347 18.1715C-0.0234559 16.2291 0.407589 14.3122 1.25299 12.6037C2.0533 10.9899 3.24298 9.647 4.69257 8.72128C6.2064 7.77726 7.9238 7.29402 9.66621 7.3218C11.8484 7.27734 13.9824 8.02626 15.7336 9.45112C17.4083 10.7543 18.5687 12.7037 18.9806 14.9061H17.0132C16.6006 13.2722 15.6626 11.8561 14.3716 10.9183C13.0037 9.8966 11.3772 9.37026 9.72124 9.4135C8.68444 9.37004 7.65086 9.56526 6.68742 9.9865C5.72399 10.4077 4.85219 11.0456 4.12848 11.8588C3.397 12.6984 2.82612 13.6892 2.4493 14.7732C2.07247 15.8572 1.89729 17.0125 1.93403 18.1715C1.89684 19.334 2.07174 20.4929 2.44851 21.5806C2.82529 22.6684 3.39639 23.6631 4.12848 24.5068C4.85341 25.3208 5.72624 25.9596 6.69071 26.3821C7.65518 26.8046 8.68988 27.0013 9.72812 26.9597C11.5302 27.0123 13.2922 26.3735 14.7086 25.1539C16.0513 23.9731 16.9399 22.2842 17.1989 20.4212H8.9439V18.4274Z" fill="#001233"/>
<path d="M36.655 20.5867C36.655 20.662 36.655 20.7447 36.655 20.8275C36.655 20.9103 36.655 21.0006 36.655 21.0984C36.6491 21.1785 36.6491 21.259 36.655 21.3391H23.5846C23.683 22.913 24.3248 24.387 25.3801 25.4623C26.436 26.5213 27.8279 27.0881 29.2599 27.0424C30.3014 27.0631 31.3284 26.7745 32.2317 26.2072C33.1027 25.6422 33.8163 24.8279 34.2955 23.8522H36.2767C35.6983 25.4023 34.7209 26.7353 33.4631 27.6895C32.2192 28.6008 30.7499 29.0735 29.253 29.0438C28.2282 29.0496 27.2128 28.8296 26.2675 28.3967C25.3657 27.9883 24.549 27.3843 23.8667 26.6211C23.1826 25.8442 22.647 24.9259 22.2913 23.9199C21.9031 22.8498 21.7069 21.7079 21.7135 20.5566C21.6944 19.0491 22.0308 17.5617 22.6903 16.2378C23.336 14.976 24.2884 13.9344 25.442 13.2282C26.6096 12.4881 27.938 12.106 29.2874 12.1221C30.6523 12.0973 31.9963 12.4909 33.1673 13.2583C34.277 13.9878 35.1796 15.0402 35.7745 16.298C36.3817 17.6283 36.6839 19.1002 36.655 20.5867ZM29.2186 14.0408C27.832 14.0081 26.4845 14.545 25.442 15.5456C24.4019 16.5537 23.7402 17.9476 23.5846 19.4581H34.8045C34.6431 17.9475 33.9825 16.5534 32.9472 15.5381C31.9212 14.543 30.5896 14.0082 29.2186 14.0408Z" fill="#001233"/>
<path d="M45.0097 26.8091H46.6194V28.7052H44.762C44.1003 28.7456 43.4379 28.6376 42.8157 28.3879C42.1934 28.1382 41.6244 27.752 41.1436 27.253C40.6917 26.7183 40.3426 26.0899 40.1169 25.4049C39.8912 24.7199 39.7935 23.9923 39.8297 23.2653V14.2966H37.2706V13.8978L41.3981 9.27046H41.7077V12.4456H46.5231V14.2966H41.7077V23.19C41.6782 23.6769 41.7391 24.1652 41.8869 24.6256C42.0347 25.086 42.2663 25.5088 42.5676 25.8686C42.8962 26.1965 43.2817 26.4488 43.7012 26.6103C44.1208 26.7719 44.5658 26.8395 45.0097 26.8091Z" fill="#001233"/>
<path d="M80.4891 12.3479H81.865V16.4936H80.1314C79.6929 16.447 79.2503 16.5012 78.8321 16.6528C78.4139 16.8044 78.0293 17.05 77.7031 17.374C77.146 18.2018 76.8865 19.2247 76.9739 20.2482V28.7052H72.9221V11.7459L73.61 11.919C74.1983 12.0798 74.7427 12.3926 75.1976 12.8312C75.6524 13.2698 76.0044 13.8214 76.2241 14.4396C76.7382 13.7533 77.3911 13.2072 78.1313 12.8442C78.8715 12.4812 79.6787 12.3113 80.4891 12.3479Z" fill="#001233"/>
<path d="M98.4373 20.5115C98.4455 20.9489 98.4248 21.3865 98.3754 21.8207H87.1005C87.2033 22.8066 87.6372 23.7156 88.3181 24.3713C88.9982 24.9833 89.8595 25.3018 90.7396 25.2667C91.3906 25.2796 92.0333 25.1058 92.6038 24.7626C93.145 24.4454 93.5915 23.9649 93.8902 23.3782H98.114C97.6236 25.0839 96.6413 26.5701 95.3142 27.6142C94.0775 28.5531 92.624 29.0919 91.1202 29.1691C89.6165 29.2463 88.1232 28.8587 86.8116 28.0506C85.6559 27.3105 84.705 26.2419 84.0599 24.9582C83.3806 23.6222 83.0321 22.1153 83.0487 20.5867C83.0323 19.0543 83.3783 17.5433 84.053 16.2002C84.6937 14.9149 85.6458 13.8476 86.8047 13.1153C88.0033 12.3627 89.3645 11.9755 90.7464 11.9942C92.1554 11.9687 93.5434 12.3697 94.757 13.1529C95.9184 13.8851 96.871 14.9557 97.5087 16.2453C98.137 17.5611 98.4562 19.0272 98.4373 20.5115ZM90.7396 15.7337C89.9233 15.7134 89.1259 16.0032 88.4832 16.5538C87.8419 17.1324 87.3923 17.9255 87.2037 18.811H94.413C94.1831 17.919 93.7017 17.129 93.0372 16.5538C92.3766 16.0074 91.5677 15.7187 90.7396 15.7337Z" fill="#001233"/>
<path d="M109.168 11.9792C110.564 11.9572 111.941 12.3415 113.157 13.0928C114.318 13.8223 115.271 14.8903 115.909 16.1776C116.601 17.5178 116.959 19.0329 116.948 20.5717C116.965 22.1124 116.617 23.6316 115.937 24.9808C115.297 26.2686 114.345 27.3386 113.185 28.0732C111.969 28.8271 110.592 29.214 109.195 29.1943C107.729 29.2199 106.291 28.7466 105.081 27.84V34.6117H101.057V11.7459L102.226 12.0469C102.69 12.1681 103.125 12.3986 103.499 12.7221C103.873 13.0457 104.178 13.4546 104.393 13.9204C105.703 12.6357 107.409 11.942 109.168 11.9792ZM105.941 23.7544C106.722 24.5685 107.759 25.0227 108.837 25.0227C109.916 25.0227 110.953 24.5685 111.733 23.7544C112.115 23.3372 112.415 22.8389 112.613 22.2902C112.812 21.7415 112.906 21.1541 112.889 20.5642C112.906 19.9743 112.812 19.3868 112.613 18.8381C112.415 18.2894 112.115 17.7911 111.733 17.374C110.953 16.5598 109.916 16.1056 108.837 16.1056C107.759 16.1056 106.722 16.5598 105.941 17.374C105.562 17.7909 105.264 18.2883 105.066 18.8356C104.869 19.3829 104.776 19.9685 104.792 20.5567C104.774 21.1473 104.866 21.7358 105.064 22.2858C105.261 22.8359 105.56 23.3357 105.941 23.7544Z" fill="#001233"/>
<path d="M126.889 11.9792C128.286 11.9572 129.663 12.3415 130.879 13.0928C132.053 13.8167 133.018 14.8853 133.665 16.1776C134.347 17.5207 134.696 19.0356 134.677 20.5717C134.694 22.1124 134.346 23.6316 133.665 24.9808C133.016 26.2736 132.052 27.344 130.879 28.0732C129.664 28.8271 128.287 29.214 126.889 29.1943C125.432 29.2136 124.005 28.7407 122.803 27.84V34.6117H118.779V11.7459L119.948 12.0469C120.412 12.1681 120.847 12.3986 121.221 12.7221C121.595 13.0457 121.9 13.4546 122.115 13.9204C123.425 12.6357 125.131 11.942 126.889 11.9792ZM123.656 23.7544C124.437 24.5685 125.474 25.0227 126.552 25.0227C127.631 25.0227 128.668 24.5685 129.448 23.7544C129.83 23.3372 130.13 22.8389 130.328 22.2902C130.527 21.7415 130.621 21.1541 130.604 20.5642C130.621 19.9743 130.527 19.3868 130.328 18.8381C130.13 18.2894 129.83 17.7911 129.448 17.374C128.668 16.5598 127.631 16.1056 126.552 16.1056C125.474 16.1056 124.437 16.5598 123.656 17.374C123.277 17.7909 122.979 18.2883 122.781 18.8356C122.584 19.3829 122.49 19.9685 122.507 20.5567C122.489 21.1473 122.581 21.7358 122.778 22.2859C122.976 22.8359 123.275 23.3357 123.656 23.7544Z" fill="#001233"/>
<path d="M151.915 20.5115C151.915 20.9445 151.888 21.377 151.832 21.8057H140.578C140.68 22.7916 141.114 23.7006 141.795 24.3563C142.475 24.9683 143.337 25.2868 144.217 25.2517C144.868 25.2646 145.51 25.0908 146.081 24.7476C146.622 24.4304 147.069 23.9498 147.367 23.3632H151.591C151.101 25.0689 150.119 26.5551 148.791 27.5992C147.555 28.5381 146.101 29.0769 144.597 29.1541C143.094 29.2313 141.6 28.8437 140.289 28.0356C139.133 27.2955 138.182 26.2269 137.537 24.9432C136.858 23.6072 136.509 22.1003 136.526 20.5717C136.509 19.0393 136.855 17.5283 137.53 16.1852C138.171 14.8999 139.123 13.8326 140.282 13.1003C141.48 12.3477 142.842 11.9605 144.224 11.9792C145.633 11.9537 147.021 12.3547 148.234 13.1379C149.396 13.8701 150.348 14.9407 150.986 16.2303C151.616 17.5506 151.936 19.0221 151.915 20.5115ZM144.217 15.7337C143.401 15.7134 142.603 16.0032 141.96 16.5539C141.319 17.1324 140.87 17.9256 140.681 18.8111H147.904C147.674 17.919 147.193 17.1291 146.528 16.5539C145.864 16.0043 145.05 15.7154 144.217 15.7337Z" fill="#001233"/>
<path d="M165.636 6.56937H169.661V28.7052H166.689L166.214 27.3509C164.918 28.5689 163.259 29.2247 161.55 29.1943C160.512 29.2263 159.48 29.0243 158.516 28.6011C157.553 28.1778 156.68 27.5422 155.951 26.7339C155.22 25.9238 154.647 24.9601 154.266 23.901C153.885 22.8418 153.705 21.7093 153.735 20.5717C153.725 19.4015 153.926 18.2406 154.327 17.1558C154.691 16.1313 155.246 15.2009 155.957 14.4237C156.667 13.6465 157.518 13.0395 158.455 12.6413C159.446 12.2 160.507 11.9776 161.578 11.9867C163.032 11.9697 164.457 12.4368 165.664 13.326L165.636 6.56937ZM158.984 23.7619C159.766 24.5765 160.804 25.031 161.884 25.031C162.963 25.031 164.002 24.5765 164.783 23.7619C165.162 23.3439 165.459 22.8464 165.656 22.2993C165.853 21.7523 165.947 21.1671 165.932 20.5792C165.947 19.9913 165.853 19.4061 165.656 18.8591C165.459 18.3121 165.162 17.8145 164.783 17.3965C164.002 16.5819 162.963 16.1275 161.884 16.1275C160.804 16.1275 159.766 16.5819 158.984 17.3965C158.605 17.8151 158.307 18.3139 158.11 18.8623C157.912 19.4108 157.819 19.9975 157.835 20.5867C157.821 21.1734 157.915 21.7573 158.112 22.3031C158.31 22.8488 158.606 23.3451 158.984 23.7619Z" fill="#001233"/>
<path d="M180 28.6677H172.137V20.0827C174.019 23.654 176.732 26.6162 180 28.6677Z" fill="url(#paint0_linear_101_78)"/>
<path d="M62.386 7.08851L62.2415 7.35185L62.3103 7.21642C62.3394 7.17669 62.3648 7.13384 62.386 7.08851Z" fill="url(#paint1_linear_101_78)"/>
<path d="M59.5765 13.153C58.7062 15.6302 58.0162 18.1788 57.5128 20.7749C57.975 18.1676 58.6662 15.6151 59.5765 13.153Z" fill="url(#paint2_linear_101_78)"/>
<path d="M70.8004 10.3917C70.8335 11.7638 70.611 13.129 70.1465 14.4041C69.682 15.6792 68.9851 16.8376 68.0984 17.8088C67.2117 18.7801 66.1536 19.5439 64.9884 20.0538C63.8233 20.5638 62.5755 20.8091 61.321 20.7749H57.4961C57.8985 18.5476 58.4691 16.3606 59.2022 14.2365C59.3168 13.8754 59.4406 13.5142 59.5736 13.153C59.7043 12.7994 59.8419 12.4533 59.9795 12.1072L62.4147 16.7947L64.1001 4.00376C60.1653 1.27252 50.9816 0.00094512 50.9816 0.00094512H61.3003C62.9852 -0.0238111 64.6463 0.43817 66.1157 1.34023C67.558 2.22256 68.7486 3.52475 69.5553 5.10228C70.3847 6.7166 70.8139 8.54001 70.8004 10.3917Z" fill="url(#paint3_linear_101_78)"/>
<path d="M62.6509 6.51679L62.7884 6.38888L62.7472 6.44907C62.7321 6.48141 62.7136 6.51171 62.6921 6.53936L62.6165 6.68984L62.6027 6.77261C62.6014 6.79516 62.6014 6.81778 62.6027 6.84033L62.5477 6.95319C62.5324 6.97029 62.5206 6.99083 62.5133 7.01338V7.06605C62.4921 7.11138 62.4667 7.15423 62.4376 7.19396L62.3688 7.32939C62.3688 7.32939 62.3688 7.32939 62.3688 7.37454L62.018 8.02161C61.8735 8.28495 61.7359 8.55582 61.6052 8.82668L61.3369 9.36089C61.2888 9.46623 61.2338 9.56405 61.1925 9.66938C60.938 10.1961 60.6972 10.7228 60.5046 11.257C60.4014 11.4977 60.3051 11.731 60.2088 11.9718C60.2088 12.0094 60.2088 12.0395 60.1606 12.0846C60.023 12.4307 59.8854 12.7768 59.7547 13.1305C58.8435 15.5923 58.1523 18.1448 57.691 20.7524C57.2884 22.8406 57.024 24.9578 56.8999 27.0876C56.8716 27.9282 56.5486 28.7246 55.9978 29.3116C55.4471 29.8986 54.7108 30.2311 53.9418 30.2402C53.5561 30.2365 53.175 30.1488 52.8206 29.9821C52.4663 29.8155 52.1459 29.5733 51.8781 29.2696C51.319 28.6386 51.0079 27.7933 51.0113 26.9146V0.000930786C51.0113 0.000930786 60.1675 1.2725 64.1024 3.97365L54.0657 10.3541L58.4752 11.1441C59.7035 9.59987 61.0176 8.13994 62.4101 6.77261L62.4583 6.72746L62.5477 6.6447C62.5791 6.59933 62.6136 6.55658 62.6509 6.51679Z" fill="url(#paint4_linear_101_78)"/>
<defs>
<linearGradient id="paint0_linear_101_78" x1="176.072" y1="17.7578" x2="176.072" y2="30.8948" gradientUnits="userSpaceOnUse">
<stop stop-color="#00D7FF"/>
<stop offset="0.13" stop-color="#00C9FF"/>
<stop offset="0.38" stop-color="#00A5FF"/>
<stop offset="0.72" stop-color="#006AFF"/>
<stop offset="1" stop-color="#0033FF"/>
</linearGradient>
<linearGradient id="paint1_linear_101_78" x1="62.4616" y1="7.22394" x2="62.3034" y2="7.22394" gradientUnits="userSpaceOnUse">
<stop stop-color="#00D7FF"/>
<stop offset="0.15" stop-color="#00C9F9"/>
<stop offset="0.44" stop-color="#00A5EA"/>
<stop offset="0.83" stop-color="#006AD2"/>
<stop offset="0.99" stop-color="#004FC7"/>
</linearGradient>
<linearGradient id="paint2_linear_101_78" x1="58.5378" y1="13.2433" x2="58.5378" y2="21.2263" gradientUnits="userSpaceOnUse">
<stop stop-color="#00D7FF"/>
<stop offset="0.15" stop-color="#00C9F9"/>
<stop offset="0.44" stop-color="#00A5EA"/>
<stop offset="0.83" stop-color="#006AD2"/>
<stop offset="0.99" stop-color="#004FC7"/>
</linearGradient>
<linearGradient id="paint3_linear_101_78" x1="81.4563" y1="10.3917" x2="59.5324" y2="10.3917" gradientUnits="userSpaceOnUse">
<stop stop-color="#00D7FF"/>
<stop offset="0.13" stop-color="#00C9FF"/>
<stop offset="0.38" stop-color="#00A5FF"/>
<stop offset="0.72" stop-color="#006AFF"/>
<stop offset="1" stop-color="#0033FF"/>
</linearGradient>
<linearGradient id="paint4_linear_101_78" x1="57.5396" y1="0.000930786" x2="57.5396" y2="30.2101" gradientUnits="userSpaceOnUse">
<stop stop-color="#00D7FF"/>
<stop offset="0.13" stop-color="#00C9FF"/>
<stop offset="0.38" stop-color="#00A5FF"/>
<stop offset="0.72" stop-color="#006AFF"/>
<stop offset="1" stop-color="#0033FF"/>
</linearGradient>
</defs>
</svg>
